<svg width="27" height="25" viewBox="0 0 27 25" fill="none" xmlns="http://www.w3.org/2000/svg">
<path d="M27.0001 2.99425C26.0183 3.47414 24.9722 3.79223 23.8816 3.94668C25.0036 3.20018 25.8599 2.02712 26.2625 0.613185C25.2164 1.3082 24.0614 1.79912 22.8305 2.07308C21.8372 0.8945 20.4215 0.164551 18.8771 0.164551C15.8807 0.164551 13.4684 2.87474 13.4684 6.1972C13.4684 6.67526 13.5047 7.13492 13.5938 7.57252C9.0943 7.32798 5.11285 4.92485 2.4382 1.26407C1.97125 2.16685 1.69735 3.20018 1.69735 4.31257C1.69735 6.4013 2.6626 8.25283 4.1014 9.32477C3.23185 9.30638 2.3788 9.02507 1.6561 8.58195C1.6561 8.60034 1.6561 8.62424 1.6561 8.64814C1.6561 11.579 3.53215 14.0134 5.9923 14.5742C5.55175 14.7084 5.0716 14.7727 4.5733 14.7727C4.2268 14.7727 3.877 14.7507 3.54865 14.6698C4.2499 17.0582 6.2398 18.8141 8.6059 18.8711C6.7645 20.4763 4.42645 21.4434 1.89535 21.4434C1.4515 21.4434 1.0258 21.4213 0.600098 21.3607C2.99755 23.0835 5.83885 24.0672 8.9029 24.0672C18.8623 24.0672 24.3073 14.8739 24.3073 6.90509C24.3073 6.63848 24.299 6.38107 24.2875 6.1255C25.3616 5.27603 26.2642 4.21513 27.0001 2.99425Z" fill="white"/>
</svg>
