<svg width="27" height="30" viewBox="0 0 27 30" fill="none" xmlns="http://www.w3.org/2000/svg">
<path fill-rule="evenodd" clip-rule="evenodd" d="M8.25 0.490234H18.15C22.7056 0.490234 26.4 4.607 26.4 9.68355V20.7155C26.4 25.7921 22.7056 29.9088 18.15 29.9088H8.25C3.69435 29.9088 0 25.7921 0 20.7155V9.68355C0 4.607 3.69435 0.490234 8.25 0.490234ZM18.15 27.1507C21.3345 27.1507 23.925 24.264 23.925 20.7154V9.68344C23.925 6.13482 21.3345 3.24812 18.15 3.24812H8.25C5.0655 3.24812 2.475 6.13482 2.475 9.68344V20.7154C2.475 24.264 5.0655 27.1507 8.25 27.1507H18.15Z" fill="white"/>
<path fill-rule="evenodd" clip-rule="evenodd" d="M6.6001 15.1994C6.6001 11.1378 9.55525 7.84473 13.2001 7.84473C16.8449 7.84473 19.8001 11.1378 19.8001 15.1994C19.8001 19.261 16.8449 22.554 13.2001 22.554C9.55525 22.554 6.6001 19.261 6.6001 15.1994ZM9.0751 15.1994C9.0751 17.7331 10.9264 19.7961 13.2001 19.7961C15.4738 19.7961 17.3251 17.7331 17.3251 15.1994C17.3251 12.6639 15.4738 10.6028 13.2001 10.6028C10.9264 10.6028 9.0751 12.6639 9.0751 15.1994Z" fill="white"/>
<ellipse cx="20.295" cy="7.29348" rx="0.87945" ry="0.980007" fill="white"/>
</svg>
