<svg width="35" height="35" viewBox="0 0 35 35" fill="none" xmlns="http://www.w3.org/2000/svg">
<path d="M30.9168 32.0834C31.3251 32.0834 31.5293 32.0834 31.6853 32.0039C31.8225 31.934 31.934 31.8225 32.0039 31.6853C32.0834 31.5293 32.0834 31.3251 32.0834 30.9168V15.7501C32.0834 15.3417 32.0834 15.1375 32.0039 14.9816C31.934 14.8443 31.8225 14.7328 31.6853 14.6629C31.5293 14.5834 31.3251 14.5834 30.9168 14.5834L27.4167 14.5834C27.0084 14.5834 26.8042 14.5834 26.6482 14.6629C26.511 14.7328 26.3995 14.8443 26.3296 14.9815C26.2501 15.1375 26.2501 15.3417 26.2501 15.7501V19.2501C26.2501 19.6585 26.2501 19.8626 26.1706 20.0186C26.1007 20.1558 25.9892 20.2674 25.852 20.3373C25.696 20.4167 25.4918 20.4167 25.0834 20.4167H21.5834C21.175 20.4167 20.9709 20.4167 20.8149 20.4962C20.6777 20.5661 20.5661 20.6777 20.4962 20.8149C20.4167 20.9709 20.4167 21.175 20.4167 21.5834V25.0834C20.4167 25.4918 20.4167 25.696 20.3373 25.852C20.2674 25.9892 20.1558 26.1007 20.0186 26.1706C19.8626 26.2501 19.6585 26.2501 19.2501 26.2501H15.7501C15.3417 26.2501 15.1375 26.2501 14.9815 26.3296C14.8443 26.3995 14.7328 26.511 14.6629 26.6482C14.5834 26.8042 14.5834 27.0084 14.5834 27.4167V30.9167C14.5834 31.3251 14.5834 31.5293 14.6629 31.6853C14.7328 31.8225 14.8443 31.934 14.9815 32.0039C15.1375 32.0834 15.3417 32.0834 15.7501 32.0834L30.9168 32.0834Z" stroke="#FCFCFD" stroke-width="2.91667" stroke-linecap="round" stroke-linejoin="round"/>
<path d="M14.5834 9.91675C14.5834 9.50838 14.5834 9.30419 14.6629 9.14821C14.7328 9.01101 14.8443 8.89946 14.9815 8.82956C15.1375 8.75008 15.3417 8.75008 15.7501 8.75008H19.2501C19.6585 8.75008 19.8626 8.75008 20.0186 8.82956C20.1558 8.89946 20.2674 9.01101 20.3373 9.14821C20.4167 9.30419 20.4167 9.50838 20.4167 9.91675V13.4167C20.4167 13.8251 20.4167 14.0293 20.3373 14.1853C20.2674 14.3225 20.1558 14.434 20.0186 14.5039C19.8626 14.5834 19.6585 14.5834 19.2501 14.5834H15.7501C15.3417 14.5834 15.1375 14.5834 14.9815 14.5039C14.8443 14.434 14.7328 14.3225 14.6629 14.1853C14.5834 14.0293 14.5834 13.8251 14.5834 13.4167V9.91675Z" stroke="#FCFCFD" stroke-width="2.91667" stroke-linecap="round" stroke-linejoin="round"/>
<path d="M4.37508 18.6668C4.37508 18.2584 4.37508 18.0542 4.45456 17.8982C4.52446 17.761 4.63601 17.6495 4.77321 17.5796C4.92919 17.5001 5.13338 17.5001 5.54175 17.5001H9.04175C9.45012 17.5001 9.65431 17.5001 9.81028 17.5796C9.94749 17.6495 10.059 17.761 10.1289 17.8982C10.2084 18.0542 10.2084 18.2584 10.2084 18.6668V22.1667C10.2084 22.5751 10.2084 22.7793 10.1289 22.9353C10.059 23.0725 9.94749 23.184 9.81028 23.2539C9.65431 23.3334 9.45012 23.3334 9.04175 23.3334H5.54175C5.13338 23.3334 4.92919 23.3334 4.77321 23.2539C4.63601 23.184 4.52446 23.0725 4.45456 22.9353C4.37508 22.7793 4.37508 22.5751 4.37508 22.1667V18.6668Z" stroke="#FCFCFD" stroke-width="2.91667" stroke-linecap="round" stroke-linejoin="round"/>
<path d="M2.91675 4.08341C2.91675 3.67504 2.91675 3.47086 2.99622 3.31488C3.06613 3.17768 3.17768 3.06613 3.31488 2.99622C3.47086 2.91675 3.67504 2.91675 4.08341 2.91675H7.58342C7.99179 2.91675 8.19597 2.91675 8.35195 2.99622C8.48915 3.06613 8.6007 3.17768 8.67061 3.31488C8.75008 3.47086 8.75008 3.67504 8.75008 4.08341V7.58342C8.75008 7.99179 8.75008 8.19597 8.67061 8.35195C8.6007 8.48915 8.48915 8.6007 8.35195 8.67061C8.19597 8.75008 7.99179 8.75008 7.58342 8.75008H4.08341C3.67504 8.75008 3.47086 8.75008 3.31488 8.67061C3.17768 8.6007 3.06613 8.48915 2.99622 8.35195C2.91675 8.19597 2.91675 7.99179 2.91675 7.58342V4.08341Z" stroke="#FCFCFD" stroke-width="2.91667" stroke-linecap="round" stroke-linejoin="round"/>
</svg>
