<svg width="28" height="28" viewBox="0 0 28 28" fill="none" xmlns="http://www.w3.org/2000/svg">
<path d="M14 1.5V7.75M14 1.5C13.1084 1.5 12.2386 1.59334 11.3999 1.77079M14 1.5C14.8915 1.5 15.7613 1.59334 16.6001 1.77079M14 7.75C10.5482 7.75 7.75 10.5482 7.75 14M14 7.75C17.4518 7.75 20.25 10.5482 20.25 14M14 20.25V26.5M14 20.25C17.4518 20.25 20.25 17.4518 20.25 14M14 20.25C10.5482 20.25 7.75 17.4518 7.75 14M14 26.5C14.8902 26.5 15.7587 26.4069 16.5963 26.23M14 26.5C13.1064 26.5 12.2348 26.4062 11.3943 26.228M5.16114 5.16117L9.58055 9.58058M18.4194 18.4194L22.8388 22.8388M1.5 14H7.75M1.5 14C1.5 14.8917 1.59333 15.7615 1.7708 16.6003M1.5 14C1.5 13.1071 1.5936 12.236 1.77158 11.396M20.25 14H26.5M26.5 14C26.5 13.1084 26.4066 12.2385 26.2291 11.3997M26.5 14C26.5 14.8913 26.4067 15.7608 26.2293 16.5993M5.16114 22.8388L9.58055 18.4194M18.4194 9.58058L22.8388 5.16117M20.8083 3.51509C22.2762 4.47023 23.5311 5.72529 24.486 7.19337M24.4825 20.8119C23.5274 22.2787 22.2729 23.5325 20.8056 24.4867M7.19214 24.4852C5.7263 23.5315 4.47289 22.2788 3.51843 20.8135M3.51463 7.19233C4.46931 5.72493 5.72367 4.47041 7.19094 3.51555" stroke="white" stroke-width="2.5" stroke-linecap="round" stroke-linejoin="round"/>
</svg>
